<svg height="512" viewBox="0 0 512 512" width="512" xmlns="http://www.w3.org/2000/svg"><g id="Flat"><path d="m352 232h-.0001a129.7687 129.7687 0 0 0 -109.83665 121.06146l-2.16325 38.93854-96 16 8 70.86487 176-22.86487z" fill="#529ddf"/><path d="m296 456h-16a50.86687 50.86687 0 0 1 32.85449-47.4082l95.14551-35.67969v-60.91211h16v72l-105.52832 39.57324a34.7912 34.7912 0 0 0 -22.47168 32.42676z" fill="#317ece"/><path d="m481 318-17 170h-136l-20.28-57.93994-5.56006-15.90015-15.17994-43.35986a79.99922 79.99922 0 0 1 14.05-77.64014l50.97-61.15991 64-8 5.27 1.76a87.99485 87.99485 0 0 1 59.73 92.24z" fill="#d4e4f0"/><path d="m424 312v72l-105.53 39.57007a34.29518 34.29518 0 0 0 -10.75 6.49l-5.56006-15.90015a49.77755 49.77755 0 0 1 10.69019-5.57007l95.14987-35.67994v-60.90991z" fill="#c1d7e6"/><path d="m481 318-17 170h-88l-5.89014-39.24a334.32205 334.32205 0 0 1 -3.62986-43.18993c-.10986-5.72-.08008-11.42993.12012-17.13013a334.1471 334.1471 0 0 1 49.39988-164.43994l5.27 1.76a87.99485 87.99485 0 0 1 59.73 92.24z" fill="#529ddf"/><path d="m464 488 7.748-77.48-94.415 20.48-10.917 57z" fill="#317ece"/><path d="m488 311.42993v112.57007l-112 32h-80a34.60467 34.60467 0 0 1 22.47-32.42993l34.79-13.05 70.74-26.52007v-72l-8-88 11.83008 3.93994a88.01093 88.01093 0 0 1 60.16992 83.48999z" fill="#529ddf"/><path d="m376 456h-80a34.60467 34.60467 0 0 1 22.47-32.42993l34.79-13.05z" fill="#fdc5ca"/><path d="m416 224-64 8 3.71-14.83 4.29-17.17 8-8 16-24 24-24z" fill="#fdc5ca"/><path d="m392 171 24 53-8-88z" fill="#fc979e"/><circle cx="432" cy="168" fill="#9f764a" r="32"/><path d="m408.26 160.83984-16.26 10.16016-8 5-24 24-40 8-24-56-16-8 16-48a72.00565 72.00565 0 0 1 72-72h1.55a72.00158 72.00158 0 0 1 71.28 61.82007l.54 3.78a71.9979 71.9979 0 0 1 -33.11 71.23977z" fill="#fdc5ca"/><path d="m360 128 11.02944-11.02944a16.97054 16.97054 0 0 1 12-4.97056 16.97054 16.97054 0 0 1 16.97056 16.97055v1.89118a16.97059 16.97059 0 0 1 -2.8502 9.41357l-10.64829 15.97243a8.42638 8.42638 0 0 1 -7.01118 3.75227 8.42639 8.42639 0 0 1 -5.95835-2.468l-5.53198-5.532z" fill="#fc979e"/><path d="m408.26 160.83984-16.26 10.16016v-43l-20.17993-11.77-72.39014-42.23a72.05344 72.05344 0 0 1 68.57007-50h1.55a72.00158 72.00158 0 0 1 71.28 61.82007l.54 3.78a71.9979 71.9979 0 0 1 -33.11 71.23977z" fill="#ba8b5d"/><path d="m328 128h-8a8 8 0 0 1 0-16h8a8 8 0 0 1 0 16z" fill="#68737f"/><path d="m400 128.97v1.88989a16.98509 16.98509 0 0 1 -2.8501 9.42017l-5.1499 7.71994v-20l-20.17993-11.77a16.9693 16.9693 0 0 1 28.17993 12.74z" fill="#9f764a"/><path d="m352 128 11.02944-11.02944a16.97054 16.97054 0 0 1 12-4.97056 16.97054 16.97054 0 0 1 16.97056 16.97055v1.89118a16.97059 16.97059 0 0 1 -2.8502 9.41357l-10.64829 15.97243a8.42638 8.42638 0 0 1 -7.01118 3.75227 8.42639 8.42639 0 0 1 -5.95835-2.468l-5.53198-5.532z" fill="#fdc5ca"/><path d="m379.31006 203.31006-9.71 9.72a8.054 8.054 0 0 1 -4.09006 2.17994l-9.8 1.96 4.29-17.17 8-8z" fill="#fc979e"/><path d="m424 312v72l-57.52 21.57007c-.10986-5.72-.08008-11.42993.12012-17.13013l41.39988-15.53003v-60.90991z" fill="#317ece"/><path d="m249.29372 456h-180.431a15.69 15.69 0 0 1 -15.38531-12.61294l-25.724-128.62a15.69 15.69 0 0 1 15.38531-18.76706h180.86128l30.68479 153.424a5.49783 5.49783 0 0 1 -5.39107 6.576z" fill="#68737f"/><path d="m256 488h-184a16 16 0 0 1 -16-16 16 16 0 0 1 16-16h184z" fill="#4f5761"/><rect fill="#3e454d" height="32" rx="16" width="200" x="240" y="456"/><path d="m264.80353 437.2338-25.72429-128.62144a15.68928 15.68928 0 0 0 -15.3846-12.61236 15.68928 15.68928 0 0 0 -15.38464 18.7662l25.7243 128.62144a15.68928 15.68928 0 0 0 15.3846 12.61236 15.68928 15.68928 0 0 0 15.38463-18.7662z" fill="#4f5761"/><circle cx="120" cy="376" fill="#d4e4f0" r="24"/></g></svg>